<svg xmlns="http://www.w3.org/2000/svg" width="512" height="512" viewBox="0 0 512 512" fill="none"><path d="M150.2 144C167 144 182.2 147.467 195.8 154.4C209.4 161.067 220.067 171.467 227.8 185.6C235.8 199.733 239.8 218 239.8 240.4V364.4H163.8V252.8C163.8 237.333 160.6 226.133 154.2 219.2C148.067 212 139.4 208.4 128.2 208.4C120.2 208.4 112.867 210.267 106.2 214C99.5333 217.467 94.3333 222.933 90.6 230.4C86.8667 237.867 85 247.6 85 259.6V364.4H9V147.6H81.4V209.2L67.4 191.2C75.6667 175.467 87 163.733 101.4 156C115.8 148 132.067 144 150.2 144Z" fill="#1AB6A9"></path><path d="M401.05 368C377.05 368 355.583 363.2 336.65 353.6C317.983 344 303.317 330.8 292.65 314C281.983 296.933 276.65 277.467 276.65 255.6C276.65 233.733 281.983 214.4 292.65 197.6C303.317 180.8 317.983 167.733 336.65 158.4C355.583 148.8 377.05 144 401.05 144C425.583 144 446.783 149.2 464.65 159.6C482.517 170 495.183 184.667 502.65 203.6L443.85 233.6C438.783 223.467 432.517 216.133 425.05 211.6C417.583 206.8 409.45 204.4 400.65 204.4C391.85 204.4 383.85 206.4 376.65 210.4C369.45 214.4 363.717 220.267 359.45 228C355.45 235.467 353.45 244.667 353.45 255.6C353.45 266.8 355.45 276.267 359.45 284C363.717 291.733 369.45 297.6 376.65 301.6C383.85 305.6 391.85 307.6 400.65 307.6C409.45 307.6 417.583 305.333 425.05 300.8C432.517 296 438.783 288.533 443.85 278.4L502.65 308.4C495.183 327.333 482.517 342 464.65 352.4C446.783 362.8 425.583 368 401.05 368Z" fill="#1AB6A9"></path></svg>